<svg id="Layer_1" data-name="Layer 1" xmlns="http://www.w3.org/2000/svg" viewBox="0 0 746.76 161.57"><path d="M960.12,214.51a81.74,81.74,0,0,0,36.15,43.81l5.69-10.27c-10.08,6.24-20.62,12.08-29.91,19.47-9.75,7.78-18.9,16.39-28.26,24.64-1.63,1.44-4.78,5.82-2.65,7.95s6.42-1.3,8-2.65c8.36-7.37,16.53-15.06,25.25-22,8.33-6.64,17.79-11.88,26.83-17.48,1.48-.91,9.55-8,5.69-10.27a78.63,78.63,0,0,1-35.12-42c-1.86-5.29-13.31,4.06-11.63,8.81Z" transform="translate(-261.15 -169.22)"/><path d="M937.59,203.24a951,951,0,0,1-24.78,98.64c-.92,3,.87,4.51,3.75,3.75,3.17-.85,6.54-4.4,7.5-7.5a973.9,973.9,0,0,0,25.36-101.37c.68-3.49-3.8-2.61-5.53-1.73a12.22,12.22,0,0,0-6.3,8.21Z" transform="translate(-261.15 -169.22)"/><path d="M462.3,204.17a1085.26,1085.26,0,0,1,1.88,118.13c-.13,3.41,3.44,2.8,5.53,1.73,2.73-1.39,6.18-4.91,6.31-8.21a1082.74,1082.74,0,0,0-1.89-118.13c-.49-6.89-12.17,1.73-11.83,6.48Z" transform="translate(-261.15 -169.22)"/><path d="M465.15,201.57c15,40.71,29.19,82.05,49.75,120.39,2.81,5.24,13.91-4.58,11.64-8.82C506,274.8,491.81,233.46,476.79,192.75c-2-5.29-13.38,4.11-11.64,8.82Z" transform="translate(-261.15 -169.22)"/><path d="M516.33,197.3l0,120.18c0,6.77,11.84-1.7,11.83-6.48l0-120.18c0-6.77-11.84,1.7-11.84,6.48Z" transform="translate(-261.15 -169.22)"/><path d="M539.55,200.33q0,60.43-4.27,120.75c-.25,3.43,3.51,2.76,5.53,1.73,2.81-1.43,6.06-4.87,6.3-8.21q4.32-60.27,4.27-120.75c0-6.77-11.84,1.7-11.83,6.48Z" transform="translate(-261.15 -169.22)"/><path d="M545.37,200l32.87-.05c4.72,0,13.29-11.85,6.48-11.84l-32.86.05c-4.72,0-13.3,11.85-6.49,11.84Z" transform="translate(-261.15 -169.22)"/><path d="M547.4,257.48a67.85,67.85,0,0,1,12.73-.78c3.3.1,6.79-3.68,8.21-6.31,1.23-2.3,1.62-5.42-1.73-5.53a67.69,67.69,0,0,0-12.72.78c-3.47.54-6.58,3.27-8.21,6.31-1,1.8-1.79,6.08,1.72,5.53Z" transform="translate(-261.15 -169.22)"/><path d="M537.66,325l37.56-1c4.71-.12,13.24-12,6.48-11.83l-37.55.95c-4.72.12-13.24,12-6.49,11.84Z" transform="translate(-261.15 -169.22)"/><path d="M596.7,199.21a1133.58,1133.58,0,0,1,3.09,123.09c-.19,6.71,11.7-1.7,11.84-6.48a1133.58,1133.58,0,0,0-3.09-123.09c-.55-6.9-12.22,1.74-11.84,6.48Z" transform="translate(-261.15 -169.22)"/><path d="M602.64,199.37A227,227,0,0,1,647.74,319c.49,6.89,12.18-1.73,11.83-6.48a233.2,233.2,0,0,0-46.33-123.79c-2.92-3.87-13.91,6.22-10.6,10.61Z" transform="translate(-261.15 -169.22)"/><path d="M604.79,270a206.51,206.51,0,0,1,28,3.91c5,1,14-10.57,8.82-11.64a224.93,224.93,0,0,0-30.35-4.11c-4.69-.32-13.4,11.37-6.48,11.84Z" transform="translate(-261.15 -169.22)"/><path d="M715.37,189.64c-14.79-2.37-29.67-2.31-40.1,10.13-8.09,9.65-10.18,23.62-2.62,34.19,4,5.62,10.06,9.36,15.59,13.32a65.87,65.87,0,0,1,16,15.91c8.08,11.65,14.67,30.79,5.33,43.59-8.82,12.08-30.27,5.08-31.43-9.55-.55-6.9-12.22,1.73-11.84,6.48,1,12.76,12.49,22.16,25.32,21.22,14.66-1.07,27.13-13.79,31.9-27,5.45-15.14.45-31.75-8.2-44.61a65.45,65.45,0,0,0-16.51-16.6c-5.85-4.2-12.57-8.23-16.41-14.53-3-5-4.59-14.44-.05-19.12,5.36-5.53,17.6-2.81,24.16-1.75,3.29.52,6.53-2.21,8.37-4.68.93-1.24,3.74-6.43.45-7Z" transform="translate(-261.15 -169.22)"/><path d="M784,191.56c-12.94-8.77-28.68,1.06-36.32,12.28-9.08,13.34-12.16,31.41-13.26,47.21-1.62,23.34,1,70.86,32.58,73.77,14.8,1.36,30-8.38,36-21.8,4-8.91-7.64-4.35-9.94.78-4.54,10.13-18.26,11.65-27.22,6.43-11.8-6.87-15.83-22-18-34.53a128.24,128.24,0,0,1,1.29-50.81c1.56-6.71,3.32-14.35,7.39-20,3.83-5.35,11.5-6.32,16.88-2.68,4.57,3.1,14.53-7.95,10.61-10.6Z" transform="translate(-261.15 -169.22)"/><path d="M805.11,203.8l13.58,117.81c.38,3.32,5.76.44,7-.44,2.57-1.89,5.06-5,4.67-8.38L816.75,195c-.38-3.32-5.76-.44-7,.44-2.56,1.89-5,5-4.67,8.38Z" transform="translate(-261.15 -169.22)"/><path d="M820.52,259.25a373.08,373.08,0,0,0,42.55-1.56c3.39-.32,6.69-3.39,8.2-6.31,1-2,1.77-5.86-1.72-5.53A368.54,368.54,0,0,1,827,247.41c-4.71-.1-13.33,11.69-6.48,11.84Z" transform="translate(-261.15 -169.22)"/><path d="M860.54,198.47c8.53,41.22,6,83.8,14.64,125,1.07,5.1,12.7-3.78,11.64-8.82-8.68-41.19-6.11-83.78-14.64-125-1.06-5.08-12.68,3.78-11.64,8.82Z" transform="translate(-261.15 -169.22)"/><path d="M364.6,178.24c-3.18,24.52-.93,49.64-.09,74.25q1.31,37.88,2.6,75.75c.23,6.84,12-1.71,11.84-6.48q-1.31-37.87-2.6-75.75c-.85-24.62-3.1-49.73.08-74.25.45-3.47-3.65-2.68-5.53-1.73-3,1.51-5.86,4.82-6.3,8.21Z" transform="translate(-261.15 -169.22)"/><path d="M367.7,235.88c36.94,17.48,49.85,60.86,76.61,88.9,3.56,3.72,14.26-6.78,10.61-10.61-27.52-28.83-40.36-71.93-78.4-89.93-4.38-2.08-14.14,9.12-8.82,11.64Z" transform="translate(-261.15 -169.22)"/><path d="M371.72,273.62c18.22-8.62,32.3-23.79,43.81-40,12.23-17.23,22.06-36.35,36.74-51.73,1.5-1.58,4.87-5.73,2.65-7.95s-6.55,1.17-8,2.65c-14.14,14.82-24.27,32.44-35.64,49.33-10.24,15.21-21.91,29.77-38.82,37.77-2.73,1.29-6.3,5-6.31,8.21,0,3.47,3.33,2.77,5.53,1.72Z" transform="translate(-261.15 -169.22)"/><path d="M303.9,201.88a81.07,81.07,0,0,1-36,43.81c-1.62.93-9.45,7.95-5.69,10.27,11.26,7,23,13.49,33.42,21.75,10.94,8.7,21.17,18.36,31.66,27.59,4,3.53,14.43-7.24,10.6-10.6-10.48-9.24-20.73-18.89-31.66-27.59-10.37-8.27-22.16-14.78-33.42-21.75l-5.69,10.27a107.73,107.73,0,0,0,48.08-57.5c1.05-3-1-4.5-3.75-3.75-3.27.87-6.4,4.38-7.5,7.5Z" transform="translate(-261.15 -169.22)"/></svg>