<svg id="Layer_1" data-name="Layer 1" xmlns="http://www.w3.org/2000/svg" viewBox="0 0 796.91 431.07"><path d="M187.55,409.87q-1.26,3.64-2.65,7.25c-.56,1.44-1.16,2.87-1.74,4.3-1.15,2.86.39-.71-.4,1-2.29,4.9-4.69,9.74-7.34,14.45q-1.9,3.36-3.94,6.65c-.26.43-2.61,4-1.16,1.86s-1,1.39-1.25,1.81q-4.6,6.68-9.77,12.94c-.45.56-1.92,2.83-2.48,3,1.45-.34,2.32-2.6-.07,0q-2.61,2.86-5.32,5.61c-2,2-4,4-6.09,5.92l-2.86,2.59c-2.18,2,3.84-3.16-.08,0s-8,6.46-12.23,9.43c-1.26.89-2.55,1.75-3.82,2.63,2.15-1.49,1.13-.72-.44.27-2.4,1.51-4.84,2.95-7.31,4.35a37.13,37.13,0,0,0-14.27,14.27c-1.43,2.67-4.9,10.63-.9,13.11,23.15,14.33,47.37,27.72,68.62,44.83,21.63,17.41,42,36.48,62.83,54.83,6.19,5.45,16.92-2.58,21.22-7.07,3.6-3.77,13.3-15.72,7.07-21.21-20.83-18.35-41.21-37.43-62.83-54.83-21.26-17.11-45.48-30.5-68.63-44.83l-15.17,27.39c46.61-26.53,83.46-69.78,101-120.57.92-2.69,1.42-6.86-.86-9.15s-6.47-1.8-9.14-.85c-8.76,3.11-17,11.16-20,20Z" transform="translate(-101.56 -284.53)"/><path d="M781.94,416.62c15.6,45.19,47.32,82.53,88.73,106.09L883.46,494c-24.51,15.17-50.21,29.38-72.71,47.49-23,18.52-44.69,38.82-66.85,58.34-4.36,3.84-12.75,15.53-7.07,21.21,6,6,17.12-3.46,21.22-7.07l30.68-27,15.87-14c-2.22,2-.26.23.89-.76l3.52-3c2.59-2.2,5.2-4.38,7.86-6.51,5-4.06,10.23-7.94,15.58-11.59l3.82-2.56c1.11-.72,1-.67-.23.16l1.55-1q4.29-2.7,8.59-5.38,17.6-10.92,35.22-21.8c6.92-4.29,25.37-21.6,12.79-28.77-37.79-21.49-67.08-57.61-81.22-98.56-4.86-14.08-35.43,10.79-31,23.51Z" transform="translate(-101.56 -284.53)"/><path d="M728.18,389.41a2231.62,2231.62,0,0,1-59,234.82c-2.31,7.46,2.28,12.74,10,10,8.52-3,17.27-11.18,20-20a2298.37,2298.37,0,0,0,60.57-242.1c1.76-9.11-10.13-7.25-14.75-4.61-8.26,4.73-15,12.44-16.81,21.89Z" transform="translate(-101.56 -284.53)"/><path d="M380.72,308.64c-6.91,51.48-3.46,103.71-1.69,155.41q2.67,78,5.35,156.1l3,88.49c.3,8.65,8.76,8,14.75,4.6,6.71-3.84,17.11-13,16.81-21.88q-2.7-78.55-5.39-157.1c-1.78-51.88-4.15-103.78-5.16-155.68-.56-29.13,0-58.31,3.85-87.22,1.21-9-9.79-7.44-14.75-4.6-7.87,4.5-15.56,12.54-16.81,21.88Z" transform="translate(-101.56 -284.53)"/><path d="M389,462.33c75.18,34.87,114.2,114.54,158.69,179.61,13.83,20.24,28.68,39.8,45.72,57.47,5.67,5.88,17.27-2.95,21.21-7.08s12.9-15.17,7.07-21.21C562.78,610,531.78,527.21,469,469.42a221,221,0,0,0-56.45-38.12c-3-1.37-8.32,1-10.72,2.27a36.29,36.29,0,0,0-11.61,10.19c-3.57,5-9.1,14.9-1.18,18.57Z" transform="translate(-101.56 -284.53)"/><path d="M399.72,563c39.89-18.5,72.46-49.79,99.65-83.77,12.79-16,24.36-32.87,35.56-50,6.67-10.2,13.24-20.45,19.84-30.69,1.42-2.22,2.86-4.44,4.29-6.65.46-.71,2.55-3.93.69-1.07l1.92-2.94q4.82-7.35,9.75-14.61c6.73-9.9,13.68-19.65,21-29.11q5.63-7.25,11.57-14.25c.76-.89,1.51-1.77,2.28-2.65-3,3.43.48-.49,1.14-1.22,2.35-2.6,4.76-5.15,7.19-7.67,4-4.2,13-15.31,7.07-21.22s-17.43,3.15-21.21,7.08c-31.54,32.7-55.81,70.92-80.29,109l-4.29,6.65-1.91,3c-2,3.12-.65,1-.22.33-3.2,4.89-6.43,9.78-9.71,14.62-5.45,8.06-11.05,16-16.89,23.79s-11.58,15.89-18.3,22.83c3.18-3.28.54-.62-.23.26s-1.8,2-2.71,3q-2.19,2.4-4.41,4.74-5.28,5.55-10.84,10.83c-2.12,2-4.23,4.15-6.51,6,.52-.42,3.3-2.8.38-.35-1.23,1-2.45,2.06-3.69,3.08q-6.19,5.05-12.72,9.67c-.87.62-1.74,1.22-2.62,1.82-1.15.78-4.06,2.61-1.24.85-2.27,1.41-4.52,2.82-6.83,4.16-5.09,3-10.32,5.64-15.66,8.12C394.2,540,385.43,549.7,385,558.4c-.5,9.43,9.27,7.14,14.75,4.6Z" transform="translate(-101.56 -284.53)"/></svg>